<?xml version="1.0" encoding="UTF-8" standalone="no"?>
<svg
   xmlns:dc="http://purl.org/dc/elements/1.1/"
   xmlns:cc="http://creativecommons.org/ns#"
   xmlns:rdf="http://www.w3.org/1999/02/22-rdf-syntax-ns#"
   xmlns:svg="http://www.w3.org/2000/svg"
   xmlns="http://www.w3.org/2000/svg"
   xmlns:sodipodi="http://sodipodi.sourceforge.net/DTD/sodipodi-0.dtd"
   xmlns:inkscape="http://www.inkscape.org/namespaces/inkscape"
   version="1.0"
   width="562.000000pt"
   height="555.000000pt"
   viewBox="0 0 562.000000 555.000000"
   preserveAspectRatio="xMidYMid meet"
   id="svg8"
   sodipodi:docname="idec.svg"
   inkscape:version="1.0.1 (3bc2e813f5, 2020-09-07)">
  <metadata
     id="metadata14">
    <rdf:RDF>
      <cc:Work
         rdf:about="">
        <dc:format>image/svg+xml</dc:format>
        <dc:type
           rdf:resource="http://purl.org/dc/dcmitype/StillImage" />
      </cc:Work>
    </rdf:RDF>
  </metadata>
  <defs
     id="defs12" />
  <sodipodi:namedview
     pagecolor="#ffffff"
     bordercolor="#666666"
     borderopacity="1"
     objecttolerance="10"
     gridtolerance="10"
     guidetolerance="10"
     inkscape:pageopacity="0"
     inkscape:pageshadow="2"
     inkscape:window-width="1920"
     inkscape:window-height="1001"
     id="namedview10"
     showgrid="false"
     inkscape:zoom="1.1216216"
     inkscape:cx="374.66667"
     inkscape:cy="418.73896"
     inkscape:window-x="-9"
     inkscape:window-y="-9"
     inkscape:window-maximized="1"
     inkscape:current-layer="svg8"
     inkscape:document-rotation="0" />
  <g
     transform="matrix(0.10981906,0,0,-0.10981906,-26.003374,590.97561)"
     fill="#000000"
     stroke="none"
     id="g6"
     style="fill:#002255">
    <path
       d="M 2655,5290 C 1815,5233 1070,4762 651,4024 c -28,-49 -51,-93 -51,-97 0,-3 318,-8 708,-9 l 707,-3 97,-27 c 297,-81 546,-277 689,-543 87,-160 121,-297 138,-545 12,-166 32,-247 91,-367 84,-171 229,-314 403,-398 175,-84 117,-79 970,-82 l 757,-4 11,28 c 30,79 83,284 106,413 24,131 27,170 27,405 1,205 -3,284 -17,372 -24,146 -59,292 -104,427 l -36,109 -106,-6 c -129,-7 -210,-27 -319,-78 -143,-66 -276,-177 -361,-302 -46,-68 -105,-199 -127,-282 -28,-105 -26,-333 4,-437 80,-282 284,-505 547,-599 l 50,-18 h -230 l -231,-1 -71,72 c -162,166 -256,346 -299,577 -22,118 -15,353 15,465 56,211 190,428 343,556 l 61,51 -379,-3 c -351,-4 -385,-6 -457,-26 -282,-78 -506,-289 -603,-566 l -28,-80 -18,73 c -9,40 -34,113 -54,162 l -36,90 33,54 c 150,247 421,435 716,494 96,20 134,21 778,21 h 677 l -42,78 c -245,449 -629,815 -1095,1043 -309,151 -594,226 -945,249 -157,11 -154,11 -315,0 z M 3821,2899 c 15,-15 19,-28 14,-47 -10,-45 -59,-106 -105,-132 -44,-25 -49,-25 -300,-28 -315,-4 -331,0 -315,84 8,47 79,118 131,132 21,5 155,10 297,11 248,1 258,0 278,-20 z"
       id="path2"
       style="fill:#002255" />
    <path
       d="m 484,3664 c -24,-58 -82,-266 -103,-371 -33,-169 -44,-292 -44,-493 0,-269 35,-503 113,-753 l 31,-97 h 169 169 l 3,494 3,494 30,44 c 33,45 95,88 132,88 54,0 53,14 53,-576 v -545 l 483,3 482,3 85,29 c 47,16 108,40 135,54 201,101 363,285 435,493 16,46 31,76 33,69 3,-8 12,-44 21,-80 10,-36 33,-102 52,-147 l 36,-83 -48,-72 c -27,-40 -86,-112 -132,-160 -154,-160 -330,-259 -561,-315 -56,-14 -170,-17 -773,-22 l -708,-6 71,-125 C 1055,880 1753,420 2565,330 c 133,-15 402,-12 549,5 795,93 1496,564 1890,1271 31,55 56,104 56,107 0,4 -296,7 -657,7 -382,0 -687,5 -728,10 -184,27 -383,107 -519,211 -184,140 -322,333 -389,544 -34,110 -45,174 -57,350 -12,182 -33,265 -103,399 -88,169 -230,302 -411,386 -106,49 -188,69 -313,77 l -103,6 v -805 c 0,-895 5,-836 -67,-825 -46,8 -101,51 -127,103 -21,39 -21,47 -18,782 l 4,742 H 1035 499 Z m 507,-199 c 93,-49 88,-191 -8,-231 -50,-21 -99,-10 -140,31 -29,29 -33,40 -33,83 0,101 94,161 181,117 z"
       id="path4"
       style="fill:#002255" />
  </g>
</svg>
